<svg width="30" height="24" viewBox="0 0 30 24" fill="none" xmlns="http://www.w3.org/2000/svg">
    <path d="M9.4344 24C20.7552 24 26.9472 14.7657 26.9472 6.75773C26.9472 6.49545 26.9472 6.23434 26.9292 5.97442C28.1338 5.11657 29.1736 4.0544 30 2.83764C28.8767 3.32795 27.685 3.64935 26.4648 3.79108C27.7498 3.03382 28.7114 1.84263 29.1708 0.439268C27.9626 1.1452 26.6408 1.64267 25.2624 1.91019C24.3344 0.938654 23.107 0.295328 21.7702 0.0797644C20.4335 -0.135799 19.0618 0.0884165 17.8675 0.717716C16.6731 1.34702 15.7228 2.34631 15.1634 3.56097C14.6041 4.77563 14.4669 6.13794 14.7732 7.43707C12.3261 7.31622 9.9322 6.69008 7.74682 5.59931C5.56144 4.50854 3.63345 2.97752 2.088 1.10561C1.30091 2.43968 1.05984 4.01894 1.41387 5.52185C1.76791 7.02476 2.69043 8.33832 3.9936 9.19509C3.01404 9.16683 2.05581 8.90666 1.2 8.43659V8.51338C1.20039 9.9125 1.69231 11.2684 2.59234 12.3511C3.49236 13.4339 4.74508 14.1767 6.138 14.4538C5.23185 14.6971 4.28109 14.7327 3.3588 14.5577C3.75227 15.7618 4.51804 16.8146 5.54905 17.5692C6.58006 18.3237 7.82478 18.7422 9.1092 18.7661C7.83305 19.7537 6.37164 20.4839 4.80859 20.9149C3.24554 21.3459 1.61152 21.4693 0 21.2779C2.81479 23.0563 6.08991 23.9996 9.4344 23.9953" fill="#1DA1F2"/>
</svg>
