<svg width="39" height="40" viewBox="0 0 39 40" fill="none" xmlns="http://www.w3.org/2000/svg">
    <path d="M19.3997 3.83325C24.4535 3.83325 25.0637 3.8529 27.0662 3.95119C28.916 4.02983 29.9077 4.36401 30.5942 4.61957C31.4715 4.97341 32.1008 5.40589 32.7683 6.07426C33.4358 6.76229 33.8363 7.41101 34.1796 8.31528C34.4466 9.00331 34.7517 10.0452 34.828 11.952C34.9233 14.0161 34.9424 14.6255 34.9424 19.8546C34.9424 25.0836 34.9233 25.693 34.828 27.7571C34.7517 29.6639 34.4275 30.6862 34.1796 31.3938C33.8363 32.2981 33.4167 32.9468 32.7683 33.6349C32.1008 34.3229 31.4715 34.7357 30.5942 35.0896C29.9268 35.3648 28.916 35.6793 27.0662 35.7579C25.0637 35.8562 24.4725 35.8759 19.3997 35.8759C14.3269 35.8759 13.7357 35.8562 11.7333 35.7579C9.88339 35.6793 8.89172 35.3451 8.22424 35.0896C7.34698 34.7357 6.71765 34.3032 6.05017 33.6349C5.38269 32.9468 4.98221 32.2981 4.63894 31.3938C4.37195 30.7058 4.06681 29.6639 3.99052 27.7571C3.89517 25.693 3.8761 25.0836 3.8761 19.8546C3.8761 14.6255 3.89517 14.0161 3.99052 11.952C4.06681 10.0452 4.39102 9.02297 4.63894 8.31528C4.98221 7.41101 5.40176 6.76229 6.05017 6.07426C6.71765 5.38623 7.34698 4.97341 8.22424 4.61957C8.89172 4.34435 9.90246 4.02983 11.7333 3.95119C13.7357 3.8529 14.3269 3.83325 19.3997 3.83325ZM19.3997 0.314453C14.2506 0.314453 13.6022 0.334111 11.5807 0.432401C9.5592 0.530692 8.18609 0.864879 6.98463 1.33667C5.74503 1.82812 4.67707 2.4965 3.62817 3.59735C2.57928 4.67854 1.93089 5.77939 1.43505 7.05717C0.958278 8.29562 0.653133 9.711 0.557779 11.7948C0.462425 13.8785 0.443359 14.5469 0.443359 19.8546C0.443359 25.1622 0.462425 25.8306 0.557779 27.9144C0.653133 29.9981 0.977349 31.4135 1.43505 32.652C1.91182 33.9297 2.56021 35.0306 3.62817 36.1118C4.67707 37.193 5.74503 37.8613 6.98463 38.3724C8.18609 38.8639 9.5592 39.1784 11.5807 39.2767C13.6022 39.375 14.2506 39.3947 19.3997 39.3947C24.5488 39.3947 25.1972 39.375 27.2187 39.2767C29.2402 39.1784 30.6133 38.8442 31.8148 38.3724C33.0544 37.881 34.1223 37.2126 35.1712 36.1118C36.2201 35.0109 36.8685 33.9297 37.3644 32.652C37.8411 31.4135 38.1463 29.9981 38.2416 27.9144C38.337 25.8306 38.356 25.1622 38.356 19.8546C38.356 14.5469 38.337 13.8785 38.2416 11.7948C38.1463 9.711 37.8221 8.29562 37.3644 7.05717C36.8876 5.77939 36.2392 4.67854 35.1712 3.59735C34.1033 2.51616 33.0544 1.84778 31.8148 1.33667C30.6133 0.845221 29.2402 0.530692 27.2187 0.432401C25.1972 0.334111 24.5488 0.314453 19.3997 0.314453Z" fill="white"/>
    <path d="M19.3999 9.8291C14.022 9.8291 9.67383 14.3111 9.67383 19.8547C9.67383 25.3983 14.022 29.8803 19.3999 29.8803C24.7779 29.8803 29.126 25.3983 29.126 19.8547C29.126 14.3111 24.7779 9.8291 19.3999 9.8291ZM19.3999 26.3615C15.91 26.3615 13.0875 23.4521 13.0875 19.8547C13.0875 16.2573 15.91 13.3479 19.3999 13.3479C22.8899 13.3479 25.7123 16.2573 25.7123 19.8547C25.7123 23.4521 22.8899 26.3615 19.3999 26.3615Z" fill="white"/>
    <path d="M31.7947 9.43599C31.7947 10.7334 30.784 11.7753 29.5253 11.7753C28.2666 11.7753 27.2559 10.7334 27.2559 9.43599C27.2559 8.13856 28.2666 7.09668 29.5253 7.09668C30.784 7.09668 31.7947 8.13856 31.7947 9.43599Z" fill="white"/>
</svg>
