<svg width="38" height="37" viewBox="0 0 38 37" fill="none" xmlns="http://www.w3.org/2000/svg">
    <path d="M19.0343 0.314453C24.1497 0.476199 28.4334 1.80252 32.1052 4.85952C35.0238 7.28571 36.9538 10.3265 37.4716 14.2246C37.9424 17.7992 36.9695 20.9856 34.8983 23.8647C33.3605 25.9997 31.4776 27.8113 29.4691 29.4611C26.4092 31.9843 23.2082 34.2973 19.7718 36.2221C19.3481 36.4485 18.9087 36.6426 18.4537 36.772C17.7319 36.9661 17.371 36.6264 17.4651 35.8501C17.575 35.0252 17.7319 34.2003 17.7947 33.3592C17.8888 31.9843 17.6064 31.6123 16.304 31.2888C14.9545 30.9492 13.5737 30.7389 12.2556 30.3184C8.25429 29.0082 4.9277 26.6952 2.65245 22.9913C-0.470139 17.8963 0.0476902 11.5882 3.89208 7.05927C7.17158 3.19353 11.3926 1.20406 16.2569 0.524723C17.3239 0.379152 18.4223 0.346802 19.05 0.314453H19.0343ZM18.9715 15.5024C18.9715 15.5024 19.0343 15.4701 19.0813 15.4539C19.1755 15.5833 19.2696 15.7127 19.3638 15.8421C20.4622 17.3948 21.5763 18.9476 22.6747 20.5004C22.9885 20.9533 23.4122 21.0988 23.8358 20.9371C24.2909 20.7592 24.4949 20.3871 24.4949 19.9019C24.4949 17.4272 24.4949 14.9363 24.4949 12.4616C24.4949 11.8308 24.0869 11.3941 23.5377 11.3779C22.9571 11.3779 22.5648 11.7984 22.5648 12.4616C22.5648 13.7879 22.5648 15.1304 22.5648 16.4567C22.5648 16.6185 22.5648 16.764 22.5335 17.0552C22.3138 16.764 22.1725 16.5699 22.047 16.3758C20.98 14.8716 19.913 13.3835 18.846 11.8793C18.3439 11.1838 17.5122 11.1838 17.167 11.8793C17.0728 12.0572 17.0415 12.2837 17.0415 12.4939C17.0415 14.9201 17.0415 17.3625 17.0415 19.7887C17.0415 19.9019 17.0415 20.0151 17.0572 20.1283C17.1513 20.6298 17.5593 20.9694 18.0457 20.9371C18.5165 20.9209 18.893 20.5651 18.9401 20.0798C18.9558 19.9019 18.9558 19.724 18.9558 19.5461C18.9558 18.1874 18.9558 16.8287 18.9558 15.4701L18.9715 15.5024ZM27.7744 13.3674C28.6374 13.3674 29.4691 13.3674 30.3007 13.3674C30.9911 13.3674 31.4148 12.963 31.4148 12.3645C31.4148 11.7661 30.9754 11.3779 30.285 11.3779C29.2023 11.3779 28.1196 11.3779 27.0212 11.3779C26.1425 11.3779 25.8129 11.7176 25.7972 12.6233C25.7972 14.0143 25.7972 15.4215 25.7972 16.8126C25.7972 17.8477 25.7972 18.8829 25.7972 19.9181C25.7972 20.5327 26.1268 20.9533 26.6603 20.9694C27.947 21.0018 29.2494 21.0018 30.5361 20.9694C31.2579 20.9533 31.6344 20.0798 31.2422 19.4652C31.0225 19.1093 30.693 18.9961 30.3007 18.9961C29.4534 18.9961 28.6217 18.9961 27.7744 18.9961V17.2007C28.6845 17.2007 29.5632 17.2007 30.4419 17.2007C30.9911 17.2007 31.3834 16.764 31.3991 16.2303C31.3991 15.6965 31.0382 15.2598 30.5047 15.1951C30.3007 15.1789 30.0967 15.1951 29.877 15.1951C29.1866 15.1951 28.4805 15.1951 27.7587 15.1951V13.3997L27.7744 13.3674ZM9.14868 18.98C9.14868 18.7212 9.14868 18.5432 9.14868 18.3653C9.14868 16.392 9.14868 14.4187 9.14868 12.4454C9.14868 11.7984 8.75641 11.3779 8.20721 11.3617C7.62663 11.3617 7.23434 11.7661 7.21865 12.4454C7.21865 12.7204 7.21865 13.0115 7.21865 13.2865C7.21865 15.4539 7.21865 17.6213 7.21865 19.7887C7.21865 20.5489 7.56387 20.9694 8.20721 20.9694C9.41545 20.9694 10.6394 20.9694 11.8476 20.9694C12.0673 20.9694 12.3184 20.8562 12.491 20.7268C12.8205 20.468 12.9146 20.0798 12.7734 19.6593C12.6165 19.2064 12.2713 18.9961 11.8162 18.98C10.9532 18.98 10.1059 18.98 9.16439 18.98H9.14868ZM15.6606 16.1817C15.6606 14.9686 15.6606 13.7556 15.6606 12.5425C15.6606 12.1219 15.5665 11.7661 15.1899 11.5235C14.4995 11.0867 13.7149 11.5882 13.7149 12.5263C13.7149 14.9363 13.7149 17.3625 13.7149 19.7725C13.7149 19.9343 13.7149 20.096 13.762 20.2577C13.9032 20.84 14.5152 21.1473 15.0487 20.9047C15.5037 20.7106 15.6606 20.3063 15.6606 19.821C15.6606 18.6079 15.6606 17.3948 15.6606 16.1817Z" fill="white"/>
</svg>
