<svg width="41" height="35" viewBox="0 0 41 35" fill="none" xmlns="http://www.w3.org/2000/svg">
    <path d="M0.470703 30.5586C4.11385 32.9535 8.44999 34.3539 13.1029 34.3539C28.3883 34.3539 37.0408 21.1212 36.526 9.22794C38.1298 8.0305 39.5356 6.54892 40.6443 4.86438C39.1594 5.53414 37.5754 5.98064 35.9122 6.1836C37.615 5.14852 38.9218 3.48428 39.5356 1.51561C37.9516 2.4898 36.1894 3.17985 34.3084 3.56546C32.8036 1.92152 30.6653 0.906738 28.2893 0.906738C22.9632 0.906738 19.0626 6.00094 20.2704 11.2778C13.4197 10.9328 7.36101 7.5637 3.28227 2.44921C1.1241 6.24449 2.15369 11.2169 5.83643 13.7336C4.49005 13.693 3.22287 13.3074 2.09429 12.6782C2.01509 16.5953 4.74745 20.2485 8.70739 21.0603C7.53921 21.385 6.27203 21.4662 4.98504 21.2024C6.03443 24.5511 9.08359 27.0069 12.6871 27.0678C9.22218 29.8483 4.86625 31.0863 0.490507 30.5586H0.470703Z" fill="white"/>
</svg>
