<svg width="40" height="31" viewBox="0 0 40 31" fill="none" xmlns="http://www.w3.org/2000/svg">
    <path d="M38.2518 5.22791C37.8082 3.37766 36.4959 1.89747 34.8325 1.40407C31.8199 0.499512 19.7508 0.499512 19.7508 0.499512C19.7508 0.499512 7.68169 0.499512 4.66904 1.40407C3.00561 1.89747 1.69334 3.35711 1.24976 5.22791C0.436528 8.59946 0.436523 15.6304 0.436523 15.6304C0.436523 15.6304 0.436528 22.6613 1.24976 26.0328C1.69334 27.8831 3.00561 29.3633 4.66904 29.8567C7.68169 30.7612 19.7508 30.7612 19.7508 30.7612C19.7508 30.7612 31.8199 30.7612 34.8325 29.8567C36.4959 29.3633 37.8082 27.9036 38.2518 26.0328C39.065 22.6613 39.065 15.6304 39.065 15.6304C39.065 15.6304 39.065 8.59946 38.2518 5.22791ZM15.814 22.0034V9.23676L25.9054 15.6098L15.814 21.9829V22.0034Z" fill="white"/>
</svg>
